<?xml version="1.0" standalone="no"?>
<!DOCTYPE svg PUBLIC "-//W3C//DTD SVG 20010904//EN"
 "http://www.w3.org/TR/2001/REC-SVG-20010904/DTD/svg10.dtd">
<svg version="1.0" xmlns="http://www.w3.org/2000/svg"
 width="792.000000pt" height="792.000000pt" viewBox="0 0 792.000000 792.000000"
 preserveAspectRatio="xMidYMid meet">
<metadata>
Created by potrace 1.14, written by Peter Selinger 2001-2017
</metadata>
<g transform="translate(0.000000,792.000000) scale(0.100000,-0.100000)"
fill="#000000" stroke="none">
<path d="M3625 7729 c-1275 -101 -2372 -757 -3038 -1817 -363 -578 -563 -1309
-544 -1992 16 -570 139 -1064 388 -1561 181 -362 397 -658 703 -965 401 -400
837 -684 1361 -884 610 -232 1281 -310 1950 -224 699 89 1380 379 1940 824
157 125 468 434 588 585 634 794 914 1778 786 2765 -124 967 -637 1849 -1434
2466 -516 400 -1161 673 -1817 769 -282 41 -630 54 -883 34z"/>
</g>
</svg>
